<?xml version="1.0" encoding="UTF-8" standalone="no"?>
<svg
   xmlns:dc="http://purl.org/dc/elements/1.1/"
   xmlns:cc="http://creativecommons.org/ns#"
   xmlns:rdf="http://www.w3.org/1999/02/22-rdf-syntax-ns#"
   xmlns:svg="http://www.w3.org/2000/svg"
   xmlns="http://www.w3.org/2000/svg"
   id="svg2451"
   viewBox="0, 0, 128, 128"
   height="128"
   width="128"
   y="0px"
   x="0px"
   version="1.1">
  <metadata
     id="metadata2455">
    <rdf:RDF>
      <cc:Work
         rdf:about="">
        <dc:format>image/svg+xml</dc:format>
        <dc:type
           rdf:resource="http://purl.org/dc/dcmitype/StillImage" />
        <dc:title></dc:title>
      </cc:Work>
    </rdf:RDF>
  </metadata>
  <g
     transform="matrix(1.2705,0,0,1.2705,-28.882197,-27.900779)"
     id="Background">
    <rect
       style="fill:#000000;fill-opacity:0"
       id="rect2434"
       height="128"
       width="128"
       y="0"
       x="0" />
  </g>
  <g
     id="g2447">
    <g
       style="fill:#ebeded;fill-opacity:1"
       id="g3681"
       transform="matrix(0.2025,0,0,0.2025,11.313137,17.859557)" />
    <g
       style="fill:#ebeded;fill-opacity:1"
       id="g3683"
       transform="matrix(0.2025,0,0,0.2025,11.313137,17.859557)" />
    <g
       style="fill:#ebeded;fill-opacity:1"
       id="g3685"
       transform="matrix(0.2025,0,0,0.2025,11.313137,17.859557)" />
    <g
       style="fill:#ebeded;fill-opacity:1"
       id="g3687"
       transform="matrix(0.2025,0,0,0.2025,11.313137,17.859557)" />
    <g
       style="fill:#ebeded;fill-opacity:1"
       id="g3689"
       transform="matrix(0.2025,0,0,0.2025,11.313137,17.859557)" />
    <g
       style="fill:#ebeded;fill-opacity:1"
       id="g3691"
       transform="matrix(0.2025,0,0,0.2025,11.313137,17.859557)" />
    <g
       style="fill:#ebeded;fill-opacity:1"
       id="g3693"
       transform="matrix(0.2025,0,0,0.2025,11.313137,17.859557)" />
    <g
       style="fill:#ebeded;fill-opacity:1"
       id="g3695"
       transform="matrix(0.2025,0,0,0.2025,11.313137,17.859557)" />
    <g
       style="fill:#ebeded;fill-opacity:1"
       id="g3697"
       transform="matrix(0.2025,0,0,0.2025,11.313137,17.859557)" />
    <g
       style="fill:#ebeded;fill-opacity:1"
       id="g3699"
       transform="matrix(0.2025,0,0,0.2025,11.313137,17.859557)" />
    <g
       style="fill:#ebeded;fill-opacity:1"
       id="g3701"
       transform="matrix(0.2025,0,0,0.2025,11.313137,17.859557)" />
    <g
       style="fill:#ebeded;fill-opacity:1"
       id="g3703"
       transform="matrix(0.2025,0,0,0.2025,11.313137,17.859557)" />
    <g
       style="fill:#ebeded;fill-opacity:1"
       id="g3705"
       transform="matrix(0.2025,0,0,0.2025,11.313137,17.859557)" />
    <g
       style="fill:#ebeded;fill-opacity:1"
       id="g3707"
       transform="matrix(0.2025,0,0,0.2025,11.313137,17.859557)" />
    <g
       style="fill:#ebeded;fill-opacity:1"
       id="g3709"
       transform="matrix(0.2025,0,0,0.2025,11.313137,17.859557)" />
    <g
       style="fill:#737370;fill-opacity:1;stroke:none"
       id="g599"
       transform="matrix(0.51884044,0,0,0.51884044,-65.847195,-54.488427)">
      <polygon
         transform="matrix(0.1356032,0.2932032,-0.00416466,0.97115047,323.55068,-54.480993)"
         id="polygon597"
         points="184.642,143.629 340.526,71.579 340.526,274.219 184.642,357.35 "
         style="fill:#737370;fill-opacity:1;stroke:none" />
      <rect
         y="139.58749"
         x="133.37123"
         height="207.25262"
         width="207.25262"
         id="rect1581"
         style="fill:#737370;fill-opacity:1;stroke:none;stroke-width:2.33212352;stroke-opacity:1" />
      <polygon
         transform="matrix(-0.31823348,-0.13560319,-0.97038174,0.00416466,540.83715,157.00748)"
         id="polygon597-3"
         points="340.526,274.219 184.642,357.35 184.642,143.629 340.526,71.579 "
         style="fill:#737370;fill-opacity:1;stroke:none" />
    </g>
    <g
       id="g601"
       transform="matrix(0.3375,0,0,0.3375,136.96358,-2.8188527)" />
    <g
       id="g603"
       transform="matrix(0.3375,0,0,0.3375,136.96358,-2.8188527)" />
    <g
       id="g605"
       transform="matrix(0.3375,0,0,0.3375,136.96358,-2.8188527)" />
    <g
       id="g607"
       transform="matrix(0.3375,0,0,0.3375,136.96358,-2.8188527)" />
    <g
       id="g609"
       transform="matrix(0.3375,0,0,0.3375,136.96358,-2.8188527)" />
    <g
       id="g611"
       transform="matrix(0.3375,0,0,0.3375,136.96358,-2.8188527)" />
    <g
       id="g613"
       transform="matrix(0.3375,0,0,0.3375,136.96358,-2.8188527)" />
    <g
       id="g615"
       transform="matrix(0.3375,0,0,0.3375,136.96358,-2.8188527)" />
    <g
       id="g617"
       transform="matrix(0.3375,0,0,0.3375,136.96358,-2.8188527)" />
    <g
       id="g619"
       transform="matrix(0.3375,0,0,0.3375,136.96358,-2.8188527)" />
    <g
       id="g621"
       transform="matrix(0.3375,0,0,0.3375,136.96358,-2.8188527)" />
    <g
       id="g623"
       transform="matrix(0.3375,0,0,0.3375,136.96358,-2.8188527)" />
    <g
       id="g625"
       transform="matrix(0.3375,0,0,0.3375,136.96358,-2.8188527)" />
    <g
       id="g627"
       transform="matrix(0.3375,0,0,0.3375,136.96358,-2.8188527)" />
    <g
       id="g629"
       transform="matrix(0.3375,0,0,0.3375,136.96358,-2.8188527)" />
    <g
       style="fill:#82d1f5;fill-opacity:1"
       id="g6642"
       transform="matrix(0.315,0,0,0.315,11.413338,24.25834)">
      <path
         style="fill:#82d1f5;fill-opacity:1"
         id="path6644"
         d="m 214.002,246 c -4.143,0 -7.5,-3.357 -7.5,-7.5 0,-4.143 3.357,-7.5 7.5,-7.5 l 16.416,0 0,-18 c 0,-8.284 -6.133,-15 -14.416,-15 l -37.584,0 0,81 37.584,0 c 8.283,0 14.416,-6.716 14.416,-15 l 0,-18 -16.416,0 z" />
      <path
         style="fill:#82d1f5;fill-opacity:1"
         id="path6646"
         d="m 163.418,118 c 0,-0.338 0.555,-0.668 0.533,-1 l 8.049,0 c 32.258,0 58.5,-26.243 58.5,-58.5 C 230.5,26.243 204.258,0 172,0 L 125,0 C 92.744,0 66.5,26.243 66.5,58.5 66.5,90.757 92.744,117 125,117 l 9.053,0 c -0.023,0.332 -0.635,0.662 -0.635,1 l 0,164 c 0,8.284 6.715,15 15,15 8.283,0 15,-6.716 15,-15 l 0,-164 z M 96.5,58.5 C 96.5,42.785 109.285,30 125,30 l 47,0 c 15.715,0 28.5,12.785 28.5,28.5 0,15.715 -12.785,28.5 -28.5,28.5 l -47,0 C 109.285,87 96.5,74.215 96.5,58.5 Z" />
    </g>
    <g
       id="g6648"
       transform="matrix(0.315,0,0,0.315,154.31005,22.743534)" />
    <g
       id="g6650"
       transform="matrix(0.315,0,0,0.315,154.31005,22.743534)" />
    <g
       id="g6652"
       transform="matrix(0.315,0,0,0.315,154.31005,22.743534)" />
    <g
       id="g6654"
       transform="matrix(0.315,0,0,0.315,154.31005,22.743534)" />
    <g
       id="g6656"
       transform="matrix(0.315,0,0,0.315,154.31005,22.743534)" />
    <g
       id="g6658"
       transform="matrix(0.315,0,0,0.315,154.31005,22.743534)" />
    <g
       id="g6660"
       transform="matrix(0.315,0,0,0.315,154.31005,22.743534)" />
    <g
       id="g6662"
       transform="matrix(0.315,0,0,0.315,154.31005,22.743534)" />
    <g
       id="g6664"
       transform="matrix(0.315,0,0,0.315,154.31005,22.743534)" />
    <g
       id="g6666"
       transform="matrix(0.315,0,0,0.315,154.31005,22.743534)" />
    <g
       id="g6668"
       transform="matrix(0.315,0,0,0.315,154.31005,22.743534)" />
    <g
       id="g6670"
       transform="matrix(0.315,0,0,0.315,154.31005,22.743534)" />
    <g
       id="g6672"
       transform="matrix(0.315,0,0,0.315,154.31005,22.743534)" />
    <g
       id="g6674"
       transform="matrix(0.315,0,0,0.315,154.31005,22.743534)" />
    <g
       id="g6676"
       transform="matrix(0.315,0,0,0.315,154.31005,22.743534)" />
  </g>
  <defs
     id="defs2449" />
</svg>
